<svg version="1.1" id="Layer_1" xmlns="http://www.w3.org/2000/svg" xmlns:xlink="http://www.w3.org/1999/xlink" x="0px" y="0px" viewBox="0 0 1058 156" style="enable-background:new 0 0 1058 156;" xml:space="preserve" aria-label="Logotipo Fundação Bradesco">
               <style type="text/css"> .st0 { fill: #FFFFFF; } </style>
               <g>
               <g>
               <path class="st0" d="M199.8,86.3c0.2,1.1,0.3,2.4,0.3,3.7c0,1.4-0.1,2.6-0.3,4h-20.2v48.2c-1.5,0.2-3.2,0.5-4.9,0.5c-1.7,0-3.3-0.2-4.6-0.5V83.2c0-15.4,9.3-22.3,21.2-22.3c3.4,0,6.7,0.6,8.5,1c0.2,1.1,0.3,2.4,0.3,3.7s-0.1,2.5-0.3,3.8c-2.3-0.6-4.7-0.8-7.4-0.8c-8.2,0-12.8,4.3-12.8,14.2v3.5H199.8z"></path>
               <path class="st0" d="M209,117.4V86.3c1.3-0.2,3.2-0.5,4.9-0.5c1.7,0,3.3,0.2,4.6,0.5v30.8c0,12.4,5.6,18.2,16.2,18.2c4.6,0,8.3-0.6,11.6-1.4V86.3c1.3-0.2,3.1-0.5,4.8-0.5c1.7,0,3.4,0.2,4.7,0.5v53.5c-6.6,1.8-14.3,3.2-21.7,3.2C217.9,142.9,209,134.3,209,117.4z"></path>
               <path class="st0" d="M269,142.1V88.5c6.6-1.8,14.3-3.2,21.9-3.2c16.2,0,25.4,8.7,25.4,25.6v31.2c-1.3,0.2-3.2,0.5-4.9,0.5c-1.7,0-3.3-0.2-4.6-0.5v-30.8c0-12.4-5.7-18.3-16.4-18.3c-4.8,0-8.7,0.6-11.9,1.4v47.7c-1.3,0.2-3.2,0.5-4.9,0.5C271.9,142.6,270.3,142.3,269,142.1z"></path>
               <path class="st0" d="M326.8,115c0-18.3,11-29.7,27.5-29.7c3.5,0,7,0.3,10.2,1.1V68.6c0-1.9,0.6-3.1,1.7-4.1c2.2-1.8,5.1-3.3,7.8-4.3v79.5c-5,1.7-12.6,3.4-20.2,3.4C337.6,143,326.8,133.3,326.8,115z M364.5,133.9V94.1c-2.5-0.7-5.8-1.1-9.7-1.1c-11.1,0-18.4,7.3-18.4,22c0,12.8,6.4,20.3,17.7,20.3C357.2,135.4,360.8,134.9,364.5,133.9z"></path>
               <path class="st0" d="M426.9,108v32.2c-6.3,1.8-13.2,2.9-19.9,2.9c-12.9,0-22.3-5.5-22.3-17.8c0-10.7,8.7-17,23-17c4.5,0,7.2,0.2,10.3,0.7v-2.2c0-9.5-5.1-13.7-14.3-13.7c-4.9,0-9.5,0.6-14.4,1.9c-0.2-1.1-0.3-2.5-0.3-3.9c0-1.3,0.1-2.5,0.3-3.5c4.2-1.4,9.8-2.2,14.7-2.2C417.9,85.3,426.9,92.1,426.9,108z M418,134.5v-18.8c-2.7-0.5-5.6-0.6-9.6-0.6c-9.8,0-14.8,2.9-14.8,9.9c0,6.9,4.8,10.6,13.7,10.6C410.8,135.6,415.6,135,418,134.5z"></path>
               <path class="st0" d="M477.3,140.3c-3.3,1.5-7,2.3-11,2.5c1.6,2.2,2.6,4.6,2.6,7.3c0,6.9-5.1,10.6-12.1,10.6c-3.8,0-6.6-0.7-9.3-1.8c-0.1-0.9-0.2-1.8-0.2-3.1c0-1.3,0.1-2.4,0.2-3.2c2.7,1.1,5.1,1.7,8.1,1.7c3.8,0,6.2-2.2,6.2-5.6c0-2.1-0.7-4-2.2-5.9c-14.3-1.5-22-12.2-22-28.7c0-17.1,9.5-28.8,25.1-28.8c5.5,0,9.7,1,13.6,2.7c0.2,1.1,0.3,2.4,0.3,3.7c0,1.1-0.1,2.6-0.3,3.9c-3.9-1.6-7.7-2.5-11.9-2.5c-11.9,0-17.2,7.8-17.2,20.9c0,13.1,5.3,21.1,17.4,21.1c4.8,0,8.9-1,12.7-2.3c0.2,1.1,0.3,2.4,0.3,3.7C477.6,137.8,477.5,139.1,477.3,140.3z"></path>
               <path class="st0" d="M526.8,108v32.2c-6.3,1.8-13.2,2.9-19.9,2.9c-12.9,0-22.3-5.5-22.3-17.8c0-10.7,8.7-17,23-17c4.5,0,7.2,0.2,10.3,0.7v-2.2c0-9.5-5.1-13.7-14.3-13.7c-4.9,0-9.5,0.6-14.4,1.9c-0.2-1.1-0.3-2.5-0.3-3.9c0-1.3,0.1-2.5,0.3-3.5c4.2-1.4,9.8-2.2,14.7-2.2C517.8,85.3,526.8,92.1,526.8,108z M490.7,76.6c-0.2-0.8-0.3-2.1-0.3-3.2s0.1-2.2,0.3-3.2c2.4-1.9,5.5-3.4,8.9-3.4c2.3,0,4.3,0.8,6.3,1.7c2.1,0.9,4.3,1.8,7.2,1.8c3.2,0,6.3-1.3,8.9-3.2c0.1,0.9,0.2,2.1,0.2,3.2s-0.1,2.3-0.2,3.3c-2.5,1.9-5.5,3.3-8.9,3.3c-3,0-5.4-1-7.4-1.9c-1.8-0.8-3.9-1.6-6.1-1.6C496.4,73.4,493.2,74.6,490.7,76.6zM517.9,134.5v-18.8c-2.7-0.5-5.6-0.6-9.6-0.6c-9.8,0-14.8,2.9-14.8,9.9c0,6.9,4.8,10.6,13.7,10.6C510.7,135.6,515.5,135,517.9,134.5z"></path>
               <path class="st0" d="M537.6,114.2c0-18.3,9.5-28.9,24.7-28.9c15.6,0,24.7,10.5,24.7,28.9c0,17.9-9.4,28.8-24.8,28.8C546.9,143,537.6,132.3,537.6,114.2z M577.3,114.2c0-14-5.1-21.2-15.1-21.2c-9.7,0-15.1,7.4-15.1,21.2c0,13.6,5.1,21.1,15,21.1C572,135.4,577.3,128.1,577.3,114.2z"></path>
               <path class="st0" d="M747.1,130.3c-7.6,0-11.8-2.3-11.8-7.6c0-5.3,4.1-7.5,11.8-7.5c2.5,0,5.5,0.3,7.1,0.4v14C753.2,129.9,749.1,130.3,747.1,130.3 M638.2,129.8c-1.7,0-4.4,0-6.3-0.7V95.8c2.3-1.2,5.5-1.9,9.6-1.9c8.3,0,12.7,5.7,12.7,16.6C654.2,121.9,649,129.8,638.2,129.8 M818.3,128.8c-2.8,0.8-4.8,0.9-7.1,0.9c-11,0-15.2-7.2-15.2-17.6c0-11.6,4.3-18.7,15.1-18.7c3.2,0,5.2,0.4,7.2,0.9V128.8z M1034.9,129.9c-9.2,0-12-7.5-12-18.2c0-10.4,2.8-18.4,12-18.4c9.5,0,12.2,7.8,12.2,18.4C1047,123,1044,129.9,1034.9,129.9 M860.6,104.4c1.2-7.4,5.6-11.8,12.3-11.8c7.5,0,10.4,5.1,10.7,11.8H860.6z M713.5,80.7c-7.9,0-12.4,3.1-16.7,8.6c-0.4-2.8-0.9-5.1-1.9-7.9c-1.6-0.5-4.4-0.7-6.8-0.7c-2.3,0-5.2,0.3-6.7,0.7v60.5c2,0.5,5.3,0.7,8.3,0.7c2.8,0,6.5-0.3,8.3-0.7v-29.5c0-11.8,6.1-18,14.4-18c1.5,0,4,0,5.5,0.3c0.9-3.9,1.1-9.5,0.3-13.4C717.3,81,714.9,80.7,713.5,80.7 M1034.9,79.9c-18.6,0-29,12.7-29,31.8c0,19.4,11,31.5,29,31.5c18.7,0,29.1-12.4,29.1-31.5C1064,92.5,1053.6,79.9,1034.9,79.9 M988.5,129.6c-8.3,0-13.8-6.5-13.8-18c0-11,4.4-18,13.9-18c4,0,6.8,0.7,10.6,2.1c1.1-3.7,3.1-8,5.9-11.6c-5.2-2.7-10.3-4.1-18.6-4.1c-18.3,0-28.9,13-28.9,31.7c0,19.4,10.8,31.7,29.5,31.7c6.8,0,13.1-1.2,18.2-4c-2.3-2.9-4.8-7-6.3-11.6C994.4,129.5,992.4,129.6,988.5,129.6 M936.9,106l-6.7-2.8c-3.9-1.6-6.1-2.9-6.1-5.5c0-3.9,3.5-4.7,8-4.7c4.5,0,9.2,0.5,15.6,2.5c0.8-4.4,0.8-8.6,0-12.4c-4-2.1-11.5-3.2-18-3.2c-12.8,0-22.6,7-22.6,17.4c0,9.4,4,14,15.2,18.6l5.2,2.1c4.9,2,6.4,3.2,6.4,6.4c0,4.8-4.8,5.6-8.8,5.6c-6.7,0-11.8-1.3-18.2-3.6c-1.1,3.9-1.1,9,0,13c5.5,2.9,13,3.9,20.9,3.9c12.7,0,22.9-6.7,22.9-18.7C950.7,114.7,946.4,110,936.9,106 M873.1,79.9c-17.9,0-28.9,12-28.9,32.1c0,20,11.6,31.3,31.5,31.3c6.8,0,14.2-1.2,18.8-3.5c0.9-3.9,0.9-9,0-12.8c-6.1,1.7-11.4,2.8-17.1,2.8c-9.2,0-15.6-3.5-17-13.2h37.7c0.5-1.5,0.7-6.4,0.7-8.4C898.9,90.1,888.8,79.9,873.1,79.9 M744.2,79.9c-6.5-0.1-12.3,0.7-17.9,2c-1.1,3.7-0.9,9.2,0,13.1c7-1.6,10.8-1.7,15.2-1.7c8.6,0,12.7,3.5,12.7,10.6v0.7c-2.5-0.3-5.6-0.5-7.8-0.5c-14.2,0-26.3,5.1-26.3,18.7c0,15.4,11,20.6,26.9,20.6c7.5,0,15.6-1.3,23.1-3.6V105C770.1,88.5,761.1,80.3,744.2,79.9 M818.3,66.5v14.6c-2.9-0.8-6-0.9-8.7-0.9c-18.3,0-30.7,12.3-30.7,31.9c0,20,12.2,31.1,31.1,31.1c8.7,0,17.2-1.2,24.9-3.7V53c-4.7,1.7-9.6,4.1-13.8,7.5C819,62.3,818.3,64,818.3,66.5 M644.3,80.2c-4.8,0-9.5,1.1-12.4,2.5V53c-4.7,1.7-9.6,4.1-13.8,7.5c-2.1,1.7-2.8,3.5-2.8,6v73.2c4.4,1.9,13.4,3.5,21.9,3.5c21.7,0,34.1-13.2,34.1-32.3C671.3,91.9,662.5,80.2,644.3,80.2"></path>
                       </g>
                   </g>
               <g>
               <path class="st0" d="M66.3,34.5c-8.4,0-17.6,0.8-26.6,2.3c9.2-11.8,23.7-19.4,40-19.4c12,0,24,4.5,32,11.2c1.5,1.2,2.6,1.3,3.7,0.2c1.1-1.1,1-2.2-0.2-3.6C104.6,13,89.1,4.7,70.9,5.1C47,5.5,26.8,20.6,19,41.5c-7.1,2.2-13.5,4.8-19.3,8c-1.6,0.9-2.1,2-1.6,3.3c0.6,1.2,1.7,1.7,3.2,1.2c4.9-1.4,10-2.6,15.2-3.7c-0.6,2.8-0.9,5.6-0.9,8.6c-0.4,19.3,9.9,37.6,25.7,47.6c1.6,1,2.9,1,3.8-0.2c0.9-1.2,0.8-2.3-0.6-3.5c-10.1-9-15.7-22.5-15.7-35.8c0-6.7,1.3-13.2,3.9-19.1c5.3-0.4,11-0.8,17.2-0.8c40.7,0,75.1,13.4,75.1,31.1c0,8.9-11.3,17.8-24.7,23.8c-3.2,1.4-3.6,2.4-3.1,3.9c0.4,1.3,1.9,1.8,3.6,1.2c23.5-7.7,41.3-20.4,41.3-35.7C142.4,50.5,108.8,34.5,66.3,34.5"></path>
               <g>
               <path class="st0" d="M82.7,94.2l-12.1,6.9v41.4h12.9c1.2,0,2.2-1,2.2-2.2V95.8C85.7,94,84.1,93.4,82.7,94.2z"></path>
               <path class="st0" d="M67.3,103.1l-8.3,4.8c-0.9,0.5-1.4,1.3-1.4,2.4v30.8c0,0.8,0.6,1.4,1.4,1.4h8.3V103.1z"></path>
                       </g>
                   </g>
           </svg>
